<?xml version="1.0" encoding="utf-8"?>
<!-- Generator: Adobe Illustrator 16.0.0, SVG Export Plug-In . SVG Version: 6.00 Build 0)  -->
<!DOCTYPE svg PUBLIC "-//W3C//DTD SVG 1.1//EN" "http://www.w3.org/Graphics/SVG/1.1/DTD/svg11.dtd">
<svg version="1.1" id="Layer_1" xmlns="http://www.w3.org/2000/svg" xmlns:xlink="http://www.w3.org/1999/xlink" x="0px" y="0px"
	 width="375px" height="155px" viewBox="0 0 375 155" enable-background="new 0 0 375 155" xml:space="preserve">
<g id="Cute_Eyes_2">
</g>
<g id="Line_Teeth">
	<g id="Smile_Teeth">
	</g>
</g>
<g>
	<g>
		<g>
			<g>
				<path fill="#1A1A1A" d="M361.645,9.831c-13.251,4.546-26.504,9.092-39.756,13.633c-1.993,0.688-2.949-0.055-3.169-1.316
					c-1.841,4.797-2.903,10.17-2.903,15.867c0,19.928,12.637,36.078,28.228,36.078c15.591,0,28.227-16.15,28.227-36.078
					C372.271,26.597,368.116,16.442,361.645,9.831z"/>
			</g>
			<g>
				<path fill="#1A1A1A" d="M321.889,25.336c19.373-6.644,20-7.657,39.373-14.3c3.912-1.338,6.117-9.92,0.707-8.057
					c-19.373,6.637-20.001,7.656-39.371,14.301C318.688,18.614,316.478,27.19,321.889,25.336L321.889,25.336z"/>
			</g>
		</g>
		<g>
			<g>
				<path fill="#1A1A1A" d="M13.354,9.831c13.253,4.546,26.507,9.092,39.757,13.633c1.995,0.688,2.948-0.055,3.169-1.316
					c1.843,4.797,2.902,10.17,2.902,15.867c0,19.928-12.635,36.078-28.227,36.078c-15.59,0-28.227-16.15-28.227-36.078
					C2.729,26.597,6.886,16.442,13.354,9.831z"/>
			</g>
			<g>
				<path fill="#1A1A1A" d="M53.111,25.336c-19.373-6.644-19.997-7.657-39.373-14.3c-3.909-1.338-6.117-9.92-0.704-8.057
					c19.373,6.637,20,7.656,39.373,14.301C56.314,18.614,58.525,27.19,53.111,25.336L53.111,25.336z"/>
			</g>
		</g>
	</g>
	<ellipse fill="#FFFFFF" cx="38.156" cy="58.249" rx="6.75" ry="11.302"/>
	<ellipse fill="#FFFFFF" cx="338.156" cy="58.249" rx="6.75" ry="11.302"/>
	<path fill="#A32A16" d="M88.609,146.479c-1.815-15.67,40.021-41.558,94.6-47.887c54.579-6.33,101.232,9.303,103.048,24.971
		c1.816,15.664-44.739,5.621-99.318,11.949C132.358,141.838,90.425,162.145,88.609,146.479z"/>
	<path fill="#FFFFFF" d="M126.062,130.719c4.895-2.367,6.126-8.148,5.834-12.693c-0.352-4.578,1.188-7.513-12.436-1.012
		c-14.594,6.969-10.345,7.223-6.973,10.342C115.847,130.439,121.144,133.088,126.062,130.719z"/>
</g>
<g id="Arrow_24">
</g>
</svg>
