<?xml version="1.0" encoding="utf-8"?>
<!-- Generator: Adobe Illustrator 16.0.0, SVG Export Plug-In . SVG Version: 6.00 Build 0)  -->
<!DOCTYPE svg PUBLIC "-//W3C//DTD SVG 1.1//EN" "http://www.w3.org/Graphics/SVG/1.1/DTD/svg11.dtd">
<svg version="1.1" id="Layer_1" xmlns="http://www.w3.org/2000/svg" xmlns:xlink="http://www.w3.org/1999/xlink" x="0px" y="0px"
	 width="140px" height="140px" viewBox="0 0 140 140" enable-background="new 0 0 140 140" xml:space="preserve">
<g id="Cute_Eyes_2">
</g>
<g id="Line_Teeth">
	<g id="Smile_Teeth">
	</g>
</g>
<g>
	<g enable-background="new    ">
		<path fill="#374541" d="M13.674,110.868c0,0.514,0.15,0.973,0.45,1.378c0.299,0.404,0.696,0.78,1.191,1.126
			c0.494,0.347,1.055,0.676,1.681,0.987s1.269,0.632,1.927,0.963c0.658,0.331,1.3,0.686,1.926,1.062
			c0.626,0.378,1.187,0.804,1.681,1.278c0.495,0.475,0.892,1.012,1.191,1.611c0.3,0.6,0.45,1.284,0.45,2.055
			c0,0.701-0.113,1.345-0.338,1.933c-0.226,0.588-0.536,1.115-0.928,1.582c-0.394,0.467-0.858,0.88-1.396,1.237
			c-0.537,0.358-1.117,0.654-1.74,0.888s-1.276,0.41-1.961,0.531s-1.374,0.181-2.066,0.181c-0.973,0-1.919-0.118-2.837-0.355
			c-0.918-0.238-1.736-0.596-2.452-1.074c-0.716-0.479-1.291-1.078-1.722-1.798c-0.432-0.721-0.648-1.562-0.648-2.528
			c0-0.498,0.08-0.936,0.239-1.313c0.159-0.377,0.358-0.692,0.595-0.945s0.497-0.444,0.776-0.572
			c0.28-0.129,0.541-0.192,0.783-0.192c0.249,0,0.457,0.067,0.625,0.204c0.167,0.136,0.251,0.349,0.251,0.636
			c0,0.133-0.016,0.272-0.047,0.421c-0.031,0.147-0.064,0.31-0.099,0.484s-0.068,0.368-0.099,0.578
			c-0.031,0.21-0.047,0.439-0.047,0.688c0,0.545,0.125,1.016,0.374,1.413c0.249,0.396,0.58,0.724,0.993,0.98
			s0.887,0.448,1.424,0.572c0.537,0.125,1.094,0.187,1.669,0.187c0.677,0,1.354-0.081,2.032-0.245
			c0.677-0.163,1.284-0.404,1.821-0.724s0.973-0.71,1.308-1.174c0.335-0.463,0.502-0.994,0.502-1.594c0-0.553-0.15-1.047-0.45-1.482
			s-0.697-0.839-1.191-1.208c-0.494-0.37-1.057-0.719-1.687-1.046c-0.63-0.326-1.273-0.657-1.927-0.992
			c-0.654-0.334-1.296-0.687-1.926-1.057c-0.63-0.369-1.193-0.776-1.687-1.22c-0.495-0.444-0.892-0.94-1.191-1.489
			c-0.3-0.548-0.45-1.173-0.45-1.873c0-0.654,0.158-1.298,0.473-1.933c0.315-0.635,0.79-1.203,1.425-1.705
			c0.634-0.502,1.426-0.908,2.376-1.22c0.949-0.312,2.062-0.467,3.339-0.467c0.809,0,1.601,0.12,2.376,0.361
			c0.774,0.241,1.465,0.584,2.072,1.027c0.607,0.444,1.096,0.974,1.465,1.588c0.37,0.615,0.555,1.296,0.555,2.044
			c0,0.443-0.076,0.898-0.228,1.365c-0.151,0.468-0.395,0.954-0.729,1.46c-0.327,0.49-0.683,0.854-1.068,1.092
			s-0.734,0.356-1.045,0.356c-0.233,0-0.424-0.068-0.572-0.205c-0.148-0.136-0.222-0.34-0.222-0.612c0-0.203,0.046-0.442,0.14-0.719
			c0.093-0.276,0.253-0.593,0.479-0.951c0.21-0.343,0.366-0.664,0.467-0.963c0.101-0.3,0.151-0.578,0.151-0.835
			c0-0.397-0.107-0.745-0.321-1.045c-0.214-0.3-0.51-0.551-0.887-0.754c-0.378-0.202-0.831-0.354-1.36-0.455
			c-0.529-0.101-1.109-0.151-1.74-0.151c-0.701,0-1.31,0.08-1.827,0.239s-0.95,0.366-1.296,0.619
			c-0.347,0.253-0.604,0.535-0.771,0.846C13.758,110.257,13.674,110.564,13.674,110.868z"/>
		<path fill="#374541" d="M26.401,123.746c0-0.514,0.031-1.107,0.093-1.78c0.062-0.673,0.14-1.358,0.233-2.055
			c0.094-0.697,0.199-1.368,0.315-2.015c0.117-0.646,0.229-1.198,0.338-1.657c0.086-0.358,0.251-0.658,0.497-0.899
			c0.245-0.241,0.578-0.362,0.998-0.362s0.712,0.129,0.875,0.386c0.164,0.257,0.246,0.6,0.246,1.027
			c0,0.117-0.012,0.274-0.035,0.473s-0.053,0.417-0.088,0.654c-0.035,0.237-0.072,0.482-0.111,0.735s-0.076,0.486-0.111,0.7
			c-0.035,0.215-0.064,0.401-0.087,0.561c-0.023,0.16-0.035,0.267-0.035,0.321h0.233c0.047-0.086,0.121-0.224,0.222-0.414
			c0.101-0.191,0.218-0.411,0.35-0.66s0.274-0.512,0.426-0.788s0.293-0.541,0.426-0.794c0.132-0.253,0.252-0.477,0.362-0.671
			c0.109-0.195,0.19-0.339,0.245-0.433c0.249-0.42,0.533-0.708,0.853-0.864c0.319-0.155,0.673-0.233,1.062-0.233
			s0.699,0.164,0.928,0.49c0.23,0.327,0.345,0.779,0.345,1.354c0,0.086-0.018,0.23-0.053,0.433c-0.035,0.202-0.08,0.443-0.134,0.724
			c-0.054,0.28-0.115,0.588-0.181,0.923c-0.066,0.334-0.127,0.677-0.181,1.027c-0.055,0.35-0.099,0.696-0.134,1.039
			s-0.053,0.657-0.053,0.945c0,0.482,0.061,0.88,0.181,1.191s0.31,0.467,0.566,0.467c0.117,0,0.251-0.035,0.403-0.105
			c0.152-0.069,0.315-0.161,0.49-0.274c0.175-0.112,0.354-0.243,0.537-0.391c0.183-0.148,0.364-0.3,0.543-0.455
			c0.413-0.366,0.844-0.778,1.296-1.238l0.199,2.615l-0.584,0.444c-0.319,0.241-0.644,0.482-0.975,0.724
			c-0.331,0.241-0.675,0.457-1.033,0.647c-0.358,0.191-0.731,0.347-1.121,0.468c-0.39,0.12-0.798,0.181-1.226,0.181
			c-0.428,0-0.788-0.31-1.08-0.928c-0.292-0.619-0.438-1.524-0.438-2.715c0-0.467,0.031-0.971,0.094-1.513
			c0.062-0.54,0.14-1.122,0.233-1.745h-0.187l-3.059,6.071c-0.156,0.319-0.331,0.537-0.525,0.654
			c-0.194,0.116-0.42,0.175-0.677,0.175c-0.319,0-0.576-0.068-0.771-0.204c-0.194-0.137-0.344-0.319-0.449-0.549
			s-0.175-0.49-0.21-0.782C26.418,124.359,26.401,124.058,26.401,123.746z"/>
		<path fill="#374541" d="M49.437,123.326c-0.179,0.249-0.418,0.541-0.718,0.875c-0.3,0.335-0.636,0.654-1.01,0.958
			c-0.374,0.304-0.775,0.561-1.203,0.771c-0.428,0.21-0.856,0.315-1.285,0.315c-0.514,0-0.942-0.165-1.284-0.496
			c-0.343-0.331-0.638-0.812-0.887-1.442c-0.187,0.218-0.417,0.44-0.689,0.666s-0.57,0.43-0.893,0.612
			c-0.323,0.184-0.66,0.333-1.01,0.45c-0.35,0.116-0.7,0.175-1.051,0.175c-0.374,0-0.737-0.076-1.092-0.228
			c-0.354-0.152-0.667-0.37-0.939-0.654c-0.273-0.284-0.491-0.63-0.654-1.039c-0.164-0.408-0.246-0.87-0.246-1.384
			c0-0.583,0.082-1.183,0.246-1.798c0.163-0.614,0.389-1.216,0.677-1.804s0.629-1.143,1.022-1.664
			c0.393-0.521,0.823-0.977,1.29-1.366c0.467-0.389,0.959-0.698,1.477-0.928c0.518-0.229,1.045-0.345,1.582-0.345
			c0.179,0,0.319,0.035,0.42,0.105c0.101,0.07,0.185,0.149,0.251,0.239c0.066,0.09,0.13,0.177,0.192,0.263
			c0.062,0.086,0.14,0.147,0.234,0.187c0.093,0.039,0.188,0.064,0.286,0.076c0.098,0.012,0.197,0.018,0.298,0.018
			c0.085,0,0.173-0.002,0.263-0.006s0.177-0.006,0.263-0.006c0.117,0,0.226,0.012,0.327,0.035c0.101,0.023,0.19,0.074,0.269,0.151
			c0.078,0.078,0.138,0.188,0.181,0.327s0.064,0.331,0.064,0.572c0,0.373-0.039,0.788-0.117,1.243
			c-0.078,0.455-0.164,0.923-0.257,1.401c-0.094,0.479-0.179,0.957-0.257,1.436c-0.078,0.479-0.117,0.933-0.117,1.36
			c0,0.366,0.033,0.652,0.1,0.858c0.066,0.206,0.208,0.31,0.426,0.31c0.164,0,0.335-0.041,0.514-0.123
			c0.179-0.081,0.36-0.188,0.542-0.32c0.183-0.133,0.366-0.282,0.549-0.45c0.183-0.167,0.356-0.34,0.52-0.52
			c0.381-0.42,0.767-0.895,1.156-1.424L49.437,123.326z M39.466,122.403c0,0.195,0.013,0.384,0.041,0.566
			c0.027,0.184,0.076,0.347,0.146,0.49c0.07,0.145,0.164,0.261,0.28,0.351s0.265,0.134,0.444,0.134c0.288,0,0.549-0.124,0.782-0.373
			s0.436-0.549,0.607-0.899c0.171-0.35,0.31-0.712,0.415-1.086c0.105-0.373,0.173-0.685,0.205-0.934l0.712-3.433
			c-0.319,0-0.63,0.08-0.934,0.239c-0.303,0.159-0.589,0.376-0.858,0.648s-0.516,0.583-0.742,0.934
			c-0.226,0.351-0.42,0.718-0.583,1.104c-0.164,0.385-0.29,0.772-0.379,1.161C39.511,121.695,39.466,122.062,39.466,122.403z"/>
		<path fill="#374541" d="M51.667,126.187c-0.716,0-1.345-0.132-1.885-0.397c-0.541-0.264-0.995-0.618-1.36-1.062
			c-0.366-0.444-0.642-0.958-0.829-1.542c-0.187-0.583-0.28-1.19-0.28-1.821c0-0.451,0.047-0.922,0.14-1.412
			c0.094-0.491,0.231-0.972,0.415-1.442s0.409-0.92,0.677-1.349c0.269-0.428,0.58-0.804,0.934-1.127
			c0.354-0.322,0.749-0.579,1.185-0.771c0.436-0.19,0.915-0.286,1.436-0.286c0.444,0,0.854,0.068,1.232,0.205
			c0.377,0.136,0.701,0.324,0.969,0.565c0.269,0.242,0.479,0.527,0.63,0.858s0.228,0.688,0.228,1.068
			c0,0.265-0.035,0.525-0.105,0.782c-0.07,0.257-0.173,0.488-0.31,0.695c-0.136,0.206-0.302,0.371-0.496,0.496
			c-0.195,0.124-0.413,0.187-0.654,0.187c-0.366,0-0.605-0.098-0.718-0.292s-0.169-0.463-0.169-0.806
			c0-0.14,0.006-0.288,0.017-0.443c0.012-0.156,0.018-0.296,0.018-0.421c0-0.187-0.02-0.342-0.058-0.467
			c-0.039-0.124-0.125-0.187-0.257-0.187c-0.319,0-0.592,0.076-0.817,0.228c-0.226,0.151-0.418,0.351-0.578,0.596
			s-0.286,0.521-0.379,0.829s-0.167,0.612-0.222,0.916c-0.055,0.304-0.09,0.594-0.105,0.87c-0.016,0.276-0.023,0.508-0.023,0.694
			c0,0.28,0.025,0.572,0.076,0.876s0.146,0.582,0.286,0.835s0.331,0.463,0.572,0.63c0.241,0.168,0.552,0.251,0.934,0.251
			c0.374,0,0.786-0.114,1.237-0.344c0.452-0.229,0.905-0.52,1.36-0.87s0.889-0.735,1.302-1.156c0.413-0.42,0.767-0.816,1.062-1.19
			l0.806,1.354c-0.583,0.833-1.214,1.576-1.892,2.229c-0.288,0.28-0.601,0.553-0.94,0.817c-0.338,0.265-0.693,0.501-1.062,0.707
			c-0.37,0.206-0.755,0.373-1.156,0.502C52.486,126.122,52.08,126.187,51.667,126.187z"/>
		<path fill="#374541" d="M60.4,119.66c0.28-0.358,0.588-0.751,0.922-1.18c0.335-0.428,0.664-0.837,0.987-1.226
			c0.323-0.39,0.619-0.735,0.887-1.039s0.48-0.51,0.636-0.619c0.241-0.171,0.537-0.317,0.888-0.438
			c0.35-0.121,0.739-0.182,1.167-0.182c0.218,0,0.426,0.051,0.625,0.152c0.199,0.101,0.372,0.245,0.52,0.432
			s0.265,0.413,0.351,0.678c0.085,0.265,0.128,0.56,0.128,0.887c0,0.319-0.078,0.641-0.234,0.964
			c-0.156,0.322-0.35,0.647-0.583,0.975s-0.487,0.653-0.759,0.98c-0.273,0.327-0.525,0.656-0.759,0.986
			c-0.233,0.331-0.428,0.66-0.583,0.987c-0.156,0.327-0.234,0.653-0.234,0.98c0,0.28,0.068,0.48,0.205,0.602
			c0.136,0.12,0.348,0.181,0.636,0.181c0.156,0,0.325-0.053,0.508-0.157c0.183-0.105,0.372-0.243,0.566-0.415
			c0.194-0.171,0.391-0.361,0.59-0.572c0.198-0.21,0.389-0.424,0.572-0.642c0.183-0.218,0.356-0.427,0.52-0.625
			c0.164-0.198,0.312-0.367,0.444-0.508l0.701,2.86c-0.242,0.351-0.547,0.676-0.917,0.976c-0.37,0.3-0.771,0.561-1.203,0.782
			c-0.432,0.222-0.88,0.395-1.343,0.52c-0.463,0.124-0.909,0.187-1.337,0.187c-0.561,0-1.018-0.068-1.372-0.204
			c-0.354-0.137-0.632-0.317-0.834-0.543c-0.203-0.226-0.341-0.48-0.415-0.765c-0.074-0.284-0.111-0.578-0.111-0.882
			c0-0.179,0.021-0.398,0.064-0.659s0.125-0.555,0.245-0.882s0.29-0.687,0.508-1.08c0.218-0.393,0.502-0.815,0.853-1.267
			c0.14-0.141,0.269-0.267,0.385-0.38c0.117-0.112,0.218-0.214,0.304-0.304c0.085-0.089,0.152-0.173,0.198-0.251
			c0.047-0.077,0.07-0.159,0.07-0.245c0-0.163-0.029-0.296-0.088-0.396c-0.058-0.102-0.142-0.152-0.251-0.152
			c-0.132,0-0.303,0.086-0.514,0.257c-0.21,0.172-0.44,0.472-0.689,0.899l-3.433,6.024c-0.179,0.312-0.364,0.527-0.555,0.648
			c-0.19,0.12-0.411,0.181-0.66,0.181c-0.334,0-0.599-0.072-0.794-0.216c-0.194-0.145-0.342-0.339-0.443-0.584
			c-0.102-0.245-0.166-0.529-0.193-0.853c-0.027-0.322-0.041-0.667-0.041-1.033c0-0.443,0.015-1.031,0.046-1.763
			s0.078-1.535,0.14-2.411s0.146-1.792,0.251-2.75c0.105-0.957,0.231-1.887,0.379-2.79c0.055-0.319,0.125-0.706,0.21-1.162
			c0.085-0.455,0.192-0.943,0.321-1.465s0.28-1.064,0.456-1.629s0.377-1.113,0.607-1.646s0.489-1.041,0.777-1.523
			c0.288-0.482,0.611-0.905,0.969-1.267c0.358-0.362,0.751-0.648,1.179-0.858s0.895-0.315,1.401-0.315
			c0.397,0,0.724,0.064,0.98,0.192c0.257,0.129,0.461,0.308,0.613,0.537c0.152,0.23,0.258,0.505,0.321,0.823
			c0.062,0.319,0.094,0.666,0.094,1.039c0,0.662-0.084,1.374-0.251,2.137s-0.379,1.528-0.636,2.295s-0.537,1.512-0.84,2.235
			c-0.304,0.724-0.596,1.378-0.876,1.962s-0.527,1.076-0.741,1.477c-0.214,0.401-0.356,0.664-0.426,0.788l-1.389,2.078L60.4,119.66z
			 M62.689,106.548c-0.249,0-0.463,0.078-0.642,0.233c-0.179,0.156-0.349,0.378-0.508,0.666c-0.16,0.288-0.319,0.638-0.479,1.051
			c-0.16,0.412-0.34,0.872-0.542,1.378c-0.125,0.443-0.24,0.902-0.345,1.377c-0.105,0.476-0.2,0.948-0.286,1.419
			c-0.085,0.471-0.162,0.937-0.228,1.396c-0.066,0.459-0.123,0.892-0.169,1.296c-0.117,0.957-0.21,1.899-0.28,2.825
			c0.171-0.514,0.358-1.072,0.561-1.675c0.203-0.604,0.403-1.199,0.602-1.787c0.198-0.587,0.385-1.144,0.56-1.669
			c0.175-0.525,0.321-0.972,0.438-1.337c0.054-0.172,0.132-0.386,0.233-0.643s0.21-0.533,0.327-0.829s0.233-0.603,0.35-0.922
			s0.224-0.627,0.321-0.923c0.097-0.296,0.177-0.572,0.239-0.829c0.062-0.257,0.093-0.475,0.093-0.653
			C62.934,106.673,62.853,106.548,62.689,106.548z"/>
		<path fill="#374541" d="M80.728,112.035c0,0.017-0.004,0.07-0.012,0.164c-0.008,0.093-0.05,0.194-0.128,0.304
			c-0.078,0.108-0.205,0.206-0.38,0.292c-0.175,0.085-0.431,0.128-0.765,0.128c-0.451,0-0.804-0.025-1.057-0.076
			c-0.253-0.05-0.439-0.12-0.561-0.21c-0.121-0.089-0.194-0.19-0.222-0.304c-0.027-0.112-0.041-0.228-0.041-0.344
			c0-1.16,0.292-2.154,0.876-2.983s1.402-1.508,2.457-2.037s2.32-0.919,3.795-1.168s3.104-0.374,4.887-0.374
			c1.183,0,2.422,0.039,3.719,0.117c1.296,0.078,2.633,0.214,4.01,0.408c0.397,0.109,0.672,0.265,0.824,0.468
			c0.151,0.202,0.227,0.416,0.227,0.642c0,0.148-0.021,0.304-0.063,0.467c-0.043,0.164-0.107,0.315-0.192,0.456
			c-0.086,0.14-0.201,0.255-0.345,0.344c-0.144,0.09-0.313,0.135-0.508,0.135c-0.031,0-0.064-0.002-0.1-0.006
			c-0.034-0.004-0.071-0.01-0.11-0.018c-0.506-0.086-1.055-0.161-1.646-0.228s-1.211-0.121-1.856-0.163
			c-0.646-0.043-1.313-0.074-2.003-0.094c-0.688-0.02-1.387-0.029-2.096-0.029c-0.21,0-0.461,0.012-0.753,0.035
			s-0.574,0.051-0.847,0.082c-0.311,0.03-0.635,0.069-0.969,0.116c0,0.086-0.008,0.183-0.023,0.292s-0.039,0.261-0.07,0.455
			c-0.031,0.195-0.068,0.444-0.111,0.747c-0.042,0.304-0.095,0.695-0.156,1.174c-0.062,0.479-0.133,1.057-0.211,1.733
			c-0.078,0.678-0.164,1.483-0.257,2.417h6.479c0.188,0,0.332,0.037,0.433,0.111s0.175,0.167,0.222,0.28
			c0.047,0.112,0.074,0.233,0.082,0.361c0.008,0.129,0.012,0.252,0.012,0.368c0,0.374-0.082,0.654-0.246,0.841
			c-0.162,0.187-0.33,0.28-0.502,0.28c-0.054,0-0.232,0.006-0.537,0.018c-0.303,0.012-0.673,0.025-1.108,0.041
			c-0.437,0.016-0.915,0.033-1.437,0.052c-0.521,0.02-1.025,0.037-1.512,0.053s-0.93,0.029-1.331,0.041s-0.702,0.018-0.905,0.018
			c-0.14,0.942-0.299,1.849-0.479,2.721c-0.179,0.872-0.402,1.687-0.671,2.446c-0.269,0.759-0.586,1.449-0.952,2.072
			c-0.365,0.622-0.801,1.155-1.307,1.6c-0.507,0.443-1.09,0.788-1.752,1.033s-1.421,0.367-2.277,0.367
			c-0.179,0-0.393-0.012-0.642-0.035c-0.249-0.022-0.51-0.062-0.782-0.116s-0.543-0.127-0.812-0.216
			c-0.269-0.09-0.508-0.201-0.718-0.333c-0.211-0.133-0.382-0.286-0.514-0.461c-0.133-0.176-0.199-0.376-0.199-0.602
			c0-0.117,0.025-0.271,0.076-0.461s0.129-0.376,0.233-0.555c0.105-0.179,0.237-0.335,0.397-0.467
			c0.159-0.133,0.352-0.199,0.578-0.199c0.256,0,0.527,0.043,0.811,0.129c0.285,0.086,0.578,0.181,0.882,0.286
			c0.304,0.104,0.614,0.2,0.935,0.286c0.318,0.086,0.642,0.128,0.969,0.128c0.257,0,0.506-0.103,0.747-0.31
			c0.241-0.206,0.469-0.49,0.683-0.852c0.215-0.362,0.419-0.786,0.613-1.273c0.195-0.486,0.377-1.012,0.549-1.576
			c0.172-0.563,0.331-1.153,0.479-1.769c0.148-0.614,0.284-1.229,0.409-1.845H81.51c-0.133,0-0.296-0.016-0.49-0.047
			c-0.195-0.031-0.381-0.083-0.561-0.157s-0.33-0.173-0.455-0.298c-0.125-0.124-0.188-0.28-0.188-0.467
			c0-0.133,0.035-0.257,0.105-0.374c0.07-0.116,0.188-0.202,0.351-0.257c0.436-0.094,0.817-0.175,1.144-0.245
			c0.328-0.07,0.617-0.13,0.871-0.181c0.252-0.051,0.477-0.096,0.67-0.135c0.195-0.039,0.375-0.07,0.537-0.093
			c0.188-0.833,0.336-1.558,0.444-2.172c0.108-0.615,0.202-1.174,0.28-1.676s0.152-0.975,0.222-1.419
			c0.07-0.443,0.151-0.914,0.245-1.412c-0.677,0.194-1.265,0.428-1.763,0.7c-0.499,0.272-0.911,0.564-1.237,0.876
			c-0.327,0.312-0.568,0.635-0.725,0.969C80.805,111.39,80.728,111.717,80.728,112.035z"/>
		<path fill="#374541" d="M102.865,123.326c-0.18,0.249-0.419,0.541-0.719,0.875c-0.299,0.335-0.636,0.654-1.01,0.958
			c-0.373,0.304-0.774,0.561-1.202,0.771c-0.429,0.21-0.856,0.315-1.284,0.315c-0.514,0-0.942-0.165-1.285-0.496
			c-0.342-0.331-0.638-0.812-0.887-1.442c-0.188,0.218-0.416,0.44-0.689,0.666c-0.271,0.226-0.57,0.43-0.893,0.612
			c-0.323,0.184-0.66,0.333-1.01,0.45c-0.351,0.116-0.701,0.175-1.051,0.175c-0.374,0-0.738-0.076-1.092-0.228
			c-0.354-0.152-0.668-0.37-0.939-0.654c-0.273-0.284-0.491-0.63-0.654-1.039c-0.164-0.408-0.246-0.87-0.246-1.384
			c0-0.583,0.082-1.183,0.246-1.798c0.163-0.614,0.389-1.216,0.677-1.804s0.629-1.143,1.022-1.664
			c0.393-0.521,0.822-0.977,1.289-1.366c0.467-0.389,0.959-0.698,1.478-0.928c0.518-0.229,1.045-0.345,1.582-0.345
			c0.179,0,0.319,0.035,0.421,0.105c0.101,0.07,0.184,0.149,0.25,0.239s0.131,0.177,0.193,0.263s0.14,0.147,0.233,0.187
			c0.093,0.039,0.188,0.064,0.286,0.076s0.196,0.018,0.297,0.018c0.086,0,0.174-0.002,0.264-0.006
			c0.089-0.004,0.177-0.006,0.262-0.006c0.117,0,0.227,0.012,0.328,0.035c0.101,0.023,0.189,0.074,0.268,0.151
			c0.078,0.078,0.139,0.188,0.182,0.327s0.064,0.331,0.064,0.572c0,0.373-0.039,0.788-0.117,1.243s-0.164,0.923-0.257,1.401
			c-0.094,0.479-0.179,0.957-0.257,1.436c-0.078,0.479-0.117,0.933-0.117,1.36c0,0.366,0.033,0.652,0.1,0.858s0.208,0.31,0.426,0.31
			c0.164,0,0.335-0.041,0.514-0.123c0.18-0.081,0.36-0.188,0.543-0.32c0.184-0.133,0.366-0.282,0.549-0.45
			c0.184-0.167,0.356-0.34,0.52-0.52c0.381-0.42,0.767-0.895,1.156-1.424L102.865,123.326z M92.895,122.403
			c0,0.195,0.013,0.384,0.04,0.566c0.027,0.184,0.076,0.347,0.146,0.49c0.07,0.145,0.164,0.261,0.281,0.351
			c0.116,0.09,0.264,0.134,0.443,0.134c0.287,0,0.549-0.124,0.782-0.373s0.437-0.549,0.606-0.899
			c0.172-0.35,0.311-0.712,0.415-1.086c0.104-0.373,0.173-0.685,0.204-0.934l0.713-3.433c-0.319,0-0.631,0.08-0.935,0.239
			s-0.589,0.376-0.858,0.648c-0.268,0.272-0.516,0.583-0.741,0.934s-0.42,0.718-0.583,1.104c-0.164,0.385-0.291,0.772-0.38,1.161
			C92.938,121.695,92.895,122.062,92.895,122.403z"/>
		<path fill="#374541" d="M108.586,123.699c-0.28,0.257-0.629,0.531-1.045,0.823s-0.866,0.561-1.349,0.806s-0.975,0.45-1.478,0.613
			c-0.502,0.163-0.979,0.245-1.43,0.245c-0.404,0-0.745-0.057-1.021-0.169c-0.276-0.113-0.5-0.271-0.672-0.474
			c-0.171-0.202-0.293-0.449-0.367-0.741s-0.111-0.612-0.111-0.963c0-0.49,0.057-1.061,0.17-1.711
			c0.112-0.649,0.25-1.323,0.414-2.02s0.336-1.392,0.52-2.084s0.345-1.331,0.484-1.915c0.055-0.202,0.164-0.375,0.327-0.52
			c0.163-0.144,0.349-0.261,0.555-0.351c0.206-0.089,0.421-0.155,0.642-0.198c0.223-0.043,0.423-0.064,0.602-0.064
			c0.327,0,0.549,0.061,0.666,0.182c0.117,0.12,0.175,0.282,0.175,0.484c0,0.171-0.039,0.418-0.116,0.741
			c-0.078,0.323-0.176,0.688-0.293,1.098c-0.116,0.408-0.24,0.849-0.373,1.319s-0.257,0.941-0.373,1.413
			c-0.117,0.471-0.215,0.93-0.293,1.377c-0.077,0.448-0.116,0.851-0.116,1.209c0,0.35,0.039,0.629,0.116,0.835
			c0.078,0.206,0.238,0.309,0.479,0.309c0.281,0,0.592-0.097,0.935-0.291c0.343-0.195,0.688-0.431,1.04-0.707
			c0.35-0.276,0.691-0.562,1.027-0.858c0.334-0.295,0.63-0.548,0.887-0.759V123.699z M103.367,111.697
			c0-0.18,0.039-0.382,0.117-0.607c0.077-0.226,0.203-0.438,0.379-0.637c0.175-0.198,0.408-0.365,0.7-0.502
			c0.292-0.136,0.655-0.204,1.092-0.204c0.272,0,0.529,0.031,0.771,0.094s0.451,0.157,0.631,0.286
			c0.179,0.128,0.32,0.298,0.426,0.508s0.158,0.459,0.158,0.747c0,0.265-0.043,0.521-0.129,0.771s-0.222,0.471-0.408,0.665
			c-0.188,0.195-0.423,0.353-0.707,0.474c-0.283,0.12-0.625,0.181-1.021,0.181c-0.686,0-1.191-0.161-1.518-0.484
			C103.53,112.664,103.367,112.234,103.367,111.697z"/>
		<path fill="#374541" d="M107.758,123.746c0-0.342,0.019-0.741,0.058-1.196c0.039-0.456,0.091-0.937,0.157-1.442
			s0.145-1.021,0.234-1.547c0.089-0.525,0.185-1.025,0.285-1.5c0.102-0.475,0.203-0.911,0.305-1.308
			c0.101-0.397,0.201-0.725,0.303-0.981c0.062-0.171,0.125-0.307,0.188-0.408s0.134-0.181,0.216-0.239
			c0.081-0.059,0.183-0.098,0.304-0.117c0.12-0.02,0.27-0.029,0.449-0.029c0.202,0,0.359,0.01,0.473,0.029s0.197,0.066,0.251,0.141
			c0.055,0.074,0.088,0.181,0.1,0.32c0.012,0.141,0.017,0.331,0.017,0.572c0,0.288,0,0.637,0,1.045c0,0.409,0.008,0.812,0.023,1.209
			h0.129c0.156-0.312,0.331-0.66,0.525-1.045c0.195-0.386,0.42-0.745,0.678-1.08c0.256-0.335,0.549-0.617,0.875-0.847
			c0.327-0.229,0.705-0.345,1.133-0.345c0.148,0,0.292,0.025,0.432,0.076c0.141,0.051,0.264,0.123,0.368,0.216
			c0.104,0.094,0.188,0.209,0.251,0.345s0.094,0.29,0.094,0.461c0,0.133-0.02,0.317-0.059,0.555s-0.082,0.486-0.129,0.747
			s-0.09,0.514-0.128,0.759c-0.039,0.245-0.059,0.45-0.059,0.613c0,0.28,0.027,0.514,0.082,0.7c0.054,0.188,0.126,0.337,0.216,0.45
			c0.09,0.112,0.19,0.192,0.304,0.239c0.112,0.047,0.231,0.07,0.356,0.07c0.35,0,0.712-0.078,1.086-0.234
			c0.373-0.155,0.715-0.33,1.027-0.525c0.365-0.226,0.724-0.482,1.074-0.771l-0.176,2.732c-0.202,0.133-0.432,0.28-0.689,0.443
			c-0.256,0.164-0.531,0.317-0.822,0.462c-0.292,0.144-0.596,0.265-0.91,0.361c-0.316,0.098-0.637,0.146-0.964,0.146
			c-0.584,0-1.055-0.119-1.413-0.356c-0.357-0.237-0.643-0.549-0.852-0.934c-0.211-0.386-0.367-0.817-0.468-1.297
			c-0.101-0.479-0.183-0.963-0.245-1.453h-0.187l-2.09,5.826c-0.109,0.304-0.212,0.555-0.31,0.753s-0.197,0.36-0.298,0.484
			c-0.101,0.125-0.21,0.213-0.327,0.263c-0.117,0.051-0.245,0.076-0.385,0.076c-0.319,0-0.576-0.068-0.771-0.204
			c-0.193-0.137-0.344-0.319-0.449-0.549c-0.104-0.229-0.175-0.49-0.21-0.782C107.775,124.359,107.758,124.058,107.758,123.746z"/>
		<path fill="#374541" d="M123.823,117.22c0.062-0.265,0.173-0.5,0.333-0.706c0.159-0.207,0.342-0.38,0.549-0.521
			c0.205-0.14,0.422-0.245,0.647-0.314c0.226-0.07,0.439-0.105,0.642-0.105c0.242,0,0.444,0.053,0.607,0.157
			c0.164,0.105,0.246,0.271,0.246,0.497c0,0.069-0.012,0.151-0.035,0.245c-0.047,0.202-0.105,0.479-0.176,0.829
			c-0.07,0.35-0.146,0.747-0.228,1.19s-0.165,0.913-0.251,1.407s-0.168,0.986-0.245,1.477c-0.194,1.152-0.394,2.39-0.596,3.713
			c0.233-0.132,0.486-0.296,0.759-0.49s0.576-0.455,0.911-0.782s0.708-0.737,1.12-1.231c0.413-0.494,0.877-1.111,1.391-1.851
			l0.56,2.592c-0.14,0.241-0.321,0.488-0.542,0.741c-0.223,0.253-0.468,0.506-0.736,0.759s-0.549,0.498-0.841,0.735
			c-0.292,0.238-0.577,0.462-0.858,0.672c-0.661,0.498-1.373,0.98-2.137,1.447c-0.147,0.833-0.322,1.645-0.525,2.435
			c-0.202,0.79-0.441,1.529-0.718,2.219c-0.276,0.688-0.591,1.321-0.945,1.897c-0.354,0.575-0.755,1.069-1.202,1.482
			c-0.448,0.412-0.948,0.733-1.501,0.963s-1.163,0.345-1.833,0.345c-0.265,0-0.551-0.027-0.858-0.082
			c-0.308-0.054-0.591-0.163-0.853-0.326c-0.26-0.164-0.477-0.397-0.647-0.701s-0.257-0.708-0.257-1.214
			c0-0.351,0.09-0.745,0.269-1.186c0.179-0.439,0.425-0.902,0.735-1.389c0.311-0.487,0.682-0.993,1.109-1.519
			s0.893-1.049,1.395-1.57s1.027-1.035,1.576-1.541s1.104-0.988,1.664-1.447l0.315-1.086c-0.421,0.373-0.858,0.675-1.313,0.904
			s-0.896,0.345-1.325,0.345c-0.374,0-0.737-0.076-1.092-0.228c-0.354-0.152-0.667-0.37-0.939-0.654s-0.491-0.63-0.653-1.039
			c-0.164-0.408-0.246-0.87-0.246-1.384c0-0.677,0.033-1.3,0.1-1.868c0.066-0.567,0.161-1.108,0.285-1.622
			c0.125-0.514,0.281-1.011,0.468-1.489s0.401-0.963,0.642-1.453c0.18-0.351,0.437-0.617,0.771-0.8
			c0.334-0.183,0.661-0.274,0.98-0.274c0.272,0,0.506,0.068,0.701,0.204c0.193,0.137,0.291,0.349,0.291,0.637
			c0,0.085-0.01,0.179-0.029,0.28c-0.02,0.101-0.053,0.21-0.1,0.326c-0.14,0.358-0.277,0.78-0.414,1.267
			c-0.137,0.487-0.257,0.985-0.361,1.495c-0.105,0.51-0.189,1.01-0.252,1.5s-0.093,0.923-0.093,1.296
			c0,0.195,0.013,0.384,0.04,0.566c0.027,0.184,0.076,0.347,0.146,0.49c0.07,0.145,0.164,0.261,0.28,0.351s0.265,0.134,0.444,0.134
			c0.287,0,0.549-0.124,0.781-0.373c0.234-0.249,0.437-0.549,0.607-0.899c0.172-0.35,0.31-0.712,0.414-1.086
			c0.105-0.373,0.174-0.685,0.205-0.934L123.823,117.22z M118.359,134.78c0.326,0,0.636-0.096,0.928-0.286
			c0.292-0.191,0.561-0.442,0.806-0.754c0.245-0.311,0.469-0.665,0.671-1.062c0.203-0.396,0.382-0.804,0.537-1.22
			c0.156-0.416,0.288-0.823,0.397-1.22c0.108-0.397,0.194-0.752,0.257-1.062c-0.304,0.202-0.613,0.443-0.928,0.724
			c-0.316,0.28-0.623,0.582-0.923,0.905c-0.3,0.322-0.584,0.655-0.853,0.998c-0.269,0.342-0.504,0.671-0.707,0.986
			c-0.201,0.315-0.361,0.609-0.479,0.882c-0.116,0.272-0.175,0.498-0.175,0.677C117.892,134.636,118.047,134.78,118.359,134.78z"/>
	</g>
</g>
<g>
	<g>
		<path fill="#CB3918" d="M88.814,85.035c0.375-0.371,0.795-1.475,1.244-1.694c-0.358-1.85,0.178-4.239,1.615-5.657
			c1.949-1.93,4.916-2.389,7.149-1.004c0.088-0.109,0.186-0.318,0.288-0.42c1.49-1.475,3.815-1.636,5.438-0.404l5.286-27.262
			L89.413,76.312l0.428-18.481L79.26,75.092L69.85,38.6l-9.423,36.49L49.846,57.822l0.429,18.479L29.854,50.184L37.846,93H69.85
			h18.533C86.927,88,87.068,86.76,88.814,85.035z"/>
	</g>
	<g>
		<path fill="#CB3918" d="M69.922,35.972l-3.244-5.845l-5.886-3.167l5.844-3.246l3.166-5.883l3.249,5.843l5.881,3.166l-5.84,3.247
			L69.922,35.972z M66.874,26.92l1.942,1.045l1.068,1.923l1.043-1.938l1.927-1.071l-1.937-1.044l-1.072-1.929l-1.047,1.946
			L66.874,26.92z"/>
	</g>
</g>
<g id="Arrow_24">
</g>
</svg>
