<?xml version="1.0" encoding="utf-8"?>
<!-- Generator: Adobe Illustrator 16.0.0, SVG Export Plug-In . SVG Version: 6.00 Build 0)  -->
<!DOCTYPE svg PUBLIC "-//W3C//DTD SVG 1.1//EN" "http://www.w3.org/Graphics/SVG/1.1/DTD/svg11.dtd">
<svg version="1.1" id="Layer_1" xmlns="http://www.w3.org/2000/svg" xmlns:xlink="http://www.w3.org/1999/xlink" x="0px" y="0px"
	 width="202.49px" height="176.178px" viewBox="0 0 202.49 176.178" enable-background="new 0 0 202.49 176.178"
	 xml:space="preserve">
<g id="Cute_Eyes_2">
</g>
<g id="Line_Teeth">
	<g id="Smile_Teeth">
	</g>
</g>
<g id="Arrow_24">
</g>
<g>
	<rect x="45.613" y="38.928" fill="#FFFFFF" width="112.387" height="67.365"/>
	<g id="Layer_84_6_">
		<g>
			<path fill="#56160B" d="M167.91,29.023H35.71v87.17h132.2V29.023z M158,106.293H45.613V38.928H158V106.293z"/>
			<path fill="#56160B" d="M163.994,117.93h-59.342h-3.479H41.83l-17.585,11.949v13.102h157.333v-13.102L163.994,117.93z
				 M120.195,137.561h-36.62v-2.625h36.614v2.625H120.195z"/>
			<polygon fill="#56160B" points="140.453,96.975 143.841,101.119 145.761,99.549 142.375,95.406 145.208,93.09 135.002,88.736 
				137.622,99.293 			"/>
			<g>
				<g>
					<path fill-rule="evenodd" clip-rule="evenodd" fill="#CB3918" d="M116.252,91.031c0.249-0.248,0.528-0.82,0.824-0.967
						c-0.237-1.227,0.119-2.731,1.073-3.675c1.293-1.281,3.263-1.55,4.745-0.63c0.06-0.072,0.124-0.188,0.192-0.256
						c0.988-0.979,2.531-1.077,3.608-0.259l3.509-18.093l-13.555,18.401l0.284-12.265l-7.023,11.457l-6.247-24.225l-6.256,24.223
						l-7.023-11.461l0.285,12.266L77.112,67.895L82.418,96h21.244h12.303C114.998,93,115.092,92.174,116.252,91.031z"/>
				</g>
				<g>
					<path fill="#CB3918" d="M103.711,58.777l-2.154-3.879l-3.907-2.102l3.88-2.156l2.101-3.904l2.157,3.877l3.904,2.104
						l-3.876,2.154L103.711,58.777z M101.687,52.77l1.289,0.693l0.708,1.277l0.693-1.285l1.279-0.713l-1.286-0.693l-0.711-1.277
						l-0.695,1.289L101.687,52.77z"/>
				</g>
			</g>
		</g>
	</g>
	<polygon fill="#FFFFFF" points="120.195,137.561 83.575,137.561 83.575,134.936 120.189,134.936 120.189,137.561 	"/>
</g>
</svg>
