<?xml version="1.0" encoding="utf-8"?>
<!-- Generator: Adobe Illustrator 16.0.0, SVG Export Plug-In . SVG Version: 6.00 Build 0)  -->
<!DOCTYPE svg PUBLIC "-//W3C//DTD SVG 1.1//EN" "http://www.w3.org/Graphics/SVG/1.1/DTD/svg11.dtd">
<svg version="1.1" id="Layer_1" xmlns="http://www.w3.org/2000/svg" xmlns:xlink="http://www.w3.org/1999/xlink" x="0px" y="0px"
	 width="202.49px" height="176.178px" viewBox="0 0 202.49 176.178" enable-background="new 0 0 202.49 176.178"
	 xml:space="preserve">
<g id="Cute_Eyes_2">
</g>
<g id="Line_Teeth">
	<g id="Smile_Teeth">
	</g>
</g>
<g id="Arrow_24">
</g>
<g>
	<g>
		<path fill="#FFFFFF" d="M59.364,91.591c5.66,0,10.398,3.906,11.752,9.15c0.17,0.658,0.266,1.338,0.328,2.025
			c0.03,0.336,0.099,0.658,0.099,1.009c0,0.446-0.084,0.872-0.135,1.315c-0.642,5.894-5.456,10.509-11.446,10.809
			c-0.208,0.008-0.397,0.061-0.598,0.061c-0.569,0-1.12-0.09-1.677-0.174c-0.679-0.094-1.34-0.238-1.983-0.443
			c-4.922-1.568-8.526-6.13-8.526-11.561C47.181,97.051,52.646,91.591,59.364,91.591z"/>
		<path fill="#FFFFFF" d="M77.73,78.466l-0.917-0.277c-1.585-0.479-3.124-2.428-3.673-4.631c-1.174-4.803-0.86-8.211,0.876-9.354
			l0.88-0.576l-0.153-5.109c0-1.345-0.034-2.606-0.072-3.796c-0.242-8.854-0.435-15.858,14.688-18.243l2.5-0.395
			c3.555-0.352,14.308-1.935,17.021-4.488l2.841-2.69l0.4,4.038c0.015,0.227,0.144,2.215,1.038,4.547l0.289,0.746l0.735,0.32
			c8.202,3.551,9.006,12.551,8.777,20.051v5.662l0.985,0.545c2.224,1.247,0.777,7,0.3,8.891c-0.58,2.323-2.123,4.303-3.923,5.043
			l-0.807,0.329l-0.276,0.829c-1.72,5.102-4.768,10.682-8.941,14.561c-0.598,0.56-1.225,1.066-1.868,1.545
			c-0.793,0.592-1.615,1.137-2.474,1.592c-1.673,0.875-3.459,1.465-5.371,1.696c-0.561,0.067-1.142,0.107-1.727,0.107
			c-0.746,0-1.47-0.069-2.166-0.163c-1.786-0.258-3.424-0.856-4.939-1.648c-0.878-0.463-1.725-0.992-2.517-1.584
			c-0.643-0.484-1.263-0.992-1.844-1.535c-5.252-4.914-8.245-12.143-9.324-15.107L77.73,78.466z"/>
		<path fill="#FFFFFF" d="M103.785,118.259l-3.019-11.865l4.053-3.47l-0.602-0.519c2.6-0.781,4.957-2.113,7.089-3.799
			c2.51,0.615,4.93,1.424,7.254,2.397L103.785,118.259z"/>
		<path fill="#FFFFFF" d="M93.111,102.312l-0.719,0.612l4.047,3.47l-2.937,11.538L78.75,101.176c2.431-1.04,4.971-1.905,7.61-2.562
			C88.346,100.204,90.583,101.503,93.111,102.312z"/>
		<path fill="#56160B" d="M114.572,95.528c3.627-3.967,6.347-8.938,8.03-13.627c2.549-1.374,4.561-4.079,5.365-7.262
			c0.725-2.893,2.352-9.382-1.166-12.46v-3.504c0.229-7.777-0.616-18.556-10.309-23.263c-0.471-1.51-0.545-2.683-0.545-2.773
			l-1.181-11.854l-8.516,8.015c-1.068,1.018-8.098,2.81-14.887,3.49L88.75,32.7c-18.439,2.9-18.165,13.113-17.918,22.127
			c0.039,1.16,0.073,2.382,0.073,3.736l0.092,3.16c-1.897,1.807-3.37,5.447-1.584,12.743c0.776,3.153,2.855,5.848,5.34,7.015
			c1.232,3.229,3.929,9.188,8.342,14.061c-2.985,0.889-5.855,2.002-8.567,3.354c-2.074-6.439-8.047-11.129-15.169-11.129
			c-8.829,0-16.012,7.178-16.012,16.009c0,6.827,4.327,12.64,10.366,14.917c-3.053,5.732-4.812,12.096-4.812,18.841v1.913h99.9
			v-1.913C148.81,117.985,134.429,101.384,114.572,95.528z M124.582,135.621v-9.711c0-1.06-0.857-1.913-1.912-1.913
			c-1.057,0-1.913,0.854-1.913,1.913v9.711H76.958v-9.711c0-1.06-0.86-1.913-1.913-1.913c-1.051,0-1.912,0.854-1.912,1.913v9.711
			H52.793c0.308-5.743,2.011-11.154,4.782-16.031c0.591,0.071,1.182,0.19,1.792,0.19c8.832,0,16.015-7.178,16.015-16.012
			c0-0.243-0.063-0.479-0.081-0.719l22.151,25.148c0.363,0.402,0.878,0.647,1.43,0.647c0,0,0.009,0,0.016,0
			c0.557-0.007,1.077-0.243,1.435-0.671l21.821-25.498c13.044,6.731,22.035,18.885,22.778,32.938h-20.347v0.007H124.582z
			 M59.364,91.591c5.66,0,10.398,3.906,11.752,9.15c0.17,0.658,0.266,1.338,0.328,2.025c0.03,0.336,0.099,0.658,0.099,1.009
			c0,0.446-0.084,0.872-0.135,1.315c-0.642,5.894-5.456,10.509-11.446,10.809c-0.208,0.008-0.397,0.061-0.598,0.061
			c-0.569,0-1.12-0.09-1.677-0.174c-0.679-0.094-1.34-0.238-1.983-0.443c-4.922-1.568-8.526-6.13-8.526-11.561
			C47.181,97.051,52.646,91.591,59.364,91.591z M77.73,78.466l-0.917-0.277c-1.585-0.479-3.124-2.428-3.673-4.631
			c-1.174-4.803-0.86-8.211,0.876-9.354l0.88-0.576l-0.153-5.109c0-1.345-0.034-2.606-0.072-3.796
			c-0.242-8.854-0.435-15.858,14.688-18.243l2.5-0.395c3.555-0.352,14.308-1.935,17.021-4.488l2.841-2.69l0.4,4.038
			c0.015,0.227,0.144,2.215,1.038,4.547l0.289,0.746l0.735,0.32c8.202,3.551,9.006,12.551,8.777,20.051v5.662l0.985,0.545
			c2.224,1.247,0.777,7,0.3,8.891c-0.58,2.323-2.123,4.303-3.923,5.043l-0.807,0.329l-0.276,0.829
			c-1.72,5.102-4.768,10.682-8.941,14.561c-0.598,0.56-1.225,1.066-1.868,1.545c-0.793,0.592-1.615,1.137-2.474,1.592
			c-1.673,0.875-3.459,1.465-5.371,1.696c-0.561,0.067-1.142,0.107-1.727,0.107c-0.746,0-1.47-0.069-2.166-0.163
			c-1.786-0.258-3.424-0.856-4.939-1.648c-0.878-0.463-1.725-0.992-2.517-1.584c-0.643-0.484-1.263-0.992-1.844-1.535
			c-5.252-4.914-8.245-12.143-9.324-15.107L77.73,78.466z M103.785,118.259l-3.019-11.865l4.053-3.47l-0.602-0.519
			c2.6-0.781,4.957-2.113,7.089-3.799c2.51,0.615,4.93,1.424,7.254,2.397L103.785,118.259z M93.111,102.312l-0.719,0.612l4.047,3.47
			l-2.937,11.538L78.75,101.176c2.431-1.04,4.971-1.905,7.61-2.562C88.346,100.204,90.583,101.503,93.111,102.312z M49.841,105.682
			v-1.913v-1.914h7.61v-7.613h1.912h1.912v7.613h7.613v0.338v1.576v0.68v1.233h-1.642h-3.011h-2.96v2.772v2.734v2.108h-1.785h-0.127
			h-1.912v-0.508v-7.101L49.841,105.682L49.841,105.682z"/>
		<path fill="#CC3300" d="M124.583,135.642v-9.711c0-1.059-0.858-1.912-1.912-1.912c-1.057,0-1.913,0.854-1.913,1.912v9.711H76.958
			v-9.711c0-1.059-0.86-1.912-1.913-1.912c-1.051,0-1.913,0.854-1.913,1.912v9.711H52.794c0.308-5.743,2.011-11.153,4.782-16.031
			c0.592,0.072,1.182,0.191,1.792,0.191c8.832,0,16.015-7.179,16.015-16.012c0-0.244-0.063-0.48-0.081-0.719l22.152,25.147
			c0.363,0.402,0.878,0.647,1.43,0.647c0,0,0.008,0,0.015,0c0.556-0.006,1.077-0.242,1.435-0.671l21.821-25.498
			c13.044,6.731,22.035,18.886,22.778,32.938h-20.347v0.007H124.583z"/>
		<g>
			<path fill="#56160B" d="M161.546,103.271l-1.221,1.231c-0.434-0.433-1.174-0.393-1.65,0.089
				c-0.476,0.478-0.509,1.218-0.077,1.647l-21.438,21.605l-0.001,0.002c-0.102,0.104-0.178,0.221-0.239,0.344
				c-0.019,0.037-0.03,0.075-0.045,0.116c-0.037,0.099-0.064,0.198-0.078,0.309c-0.001,0.026-0.016,0.046-0.016,0.071l-0.648,14.035
				c-0.031,0.645,0.468,1.137,1.11,1.103l14.028-0.755c0.025,0,0.048-0.016,0.072-0.018c0.106-0.013,0.213-0.038,0.312-0.078
				c0.037-0.019,0.076-0.025,0.112-0.045c0.124-0.062,0.241-0.14,0.344-0.244l0,0l21.441-21.605l0,0
				c0.434,0.432,1.173,0.392,1.65-0.09c0.475-0.479,0.51-1.217,0.075-1.648h-0.001l1.223-1.232h0.001
				c0.434,0.432,1.173,0.392,1.648-0.087c0.478-0.481,0.511-1.22,0.079-1.652l-0.003,0.001l4.131-4.16
				c0.477-0.481,0.512-1.221,0.076-1.653l-4.459-4.423l-4.46-4.428l-4.461-4.426c-0.433-0.429-1.174-0.391-1.649,0.09l-4.131,4.162
				c-0.434-0.433-1.171-0.393-1.65,0.086C161.146,102.097,161.112,102.839,161.546,103.271z M141.317,141.278l-2.67-2.65
				l0.412-8.899l2.342-0.124l-0.159,3.51c-0.002,0.017,0.003,0.025,0.005,0.04c-0.002,0.129,0.018,0.251,0.056,0.361
				c0.014,0.038,0.031,0.071,0.047,0.105c0.04,0.09,0.093,0.169,0.154,0.237c0.015,0.018,0.029,0.036,0.047,0.053
				c0.015,0.018,0.035,0.031,0.053,0.048c0.072,0.062,0.151,0.11,0.237,0.154c0.036,0.015,0.069,0.034,0.106,0.042
				c0.112,0.037,0.234,0.059,0.363,0.057c0.015,0,0.027,0.004,0.044,0.002l3.508-0.188l-0.163,3.513c0.002,0,0,0.001,0,0.001
				c0,0.018,0.006,0.037,0.004,0.054c0.001,0.059,0.009,0.114,0.018,0.167c0.008,0.058,0.018,0.113,0.034,0.168
				c0.015,0.054,0.041,0.098,0.063,0.145c0.024,0.052,0.05,0.101,0.082,0.143c0.034,0.047,0.073,0.087,0.114,0.125
				c0.036,0.037,0.068,0.072,0.111,0.102c0.049,0.033,0.104,0.064,0.16,0.091c0.044,0.019,0.085,0.041,0.13,0.056
				c0.06,0.018,0.119,0.027,0.18,0.034c0.053,0.007,0.105,0.017,0.159,0.017c0.018-0.002,0.036,0.004,0.058,0.004l3.507-0.189
				l-0.108,2.347L141.317,141.278z M145.276,131.733l19.357-19.507l2.886,2.868l-19.355,19.506l-0.001-0.003l0.086-1.86
				c0.007-0.158-0.018-0.309-0.072-0.443l-0.002-0.015c-0.054-0.13-0.129-0.249-0.229-0.349c-0.101-0.1-0.219-0.176-0.352-0.225
				c-0.004-0.002-0.007-0.003-0.011-0.004c-0.137-0.052-0.288-0.075-0.447-0.07L145.276,131.733z M152.623,139.022l0.086-1.859
				c0.029-0.645-0.47-1.137-1.113-1.104l-1.859,0.101l19.3-19.45l0.056-0.058l2.886,2.862L152.623,139.022z M168.113,99.799
				l2.887,2.866l-0.007,0.006l1.573,1.562l0.007-0.008l2.885,2.864l-0.003,0.009l1.572,1.559l0.007-0.005l2.886,2.866l-3.269,3.291
				l-0.063-0.064l-2.823-2.802l-1.572-1.56l-2.887-2.863l-1.575-1.564l-2.52-2.501l-0.365-0.364L168.113,99.799L168.113,99.799z
				 M163.121,104.831l0.216,0.215l2.669,2.65l1.574,1.56l2.885,2.868l1.573,1.56l2.67,2.65l0.217,0.213l-1.222,1.233l-0.216-0.215
				l-2.671-2.651l-1.574-1.56l-2.885-2.867l-1.573-1.561l-2.67-2.65l-0.217-0.213L163.121,104.831z M160.172,107.802l2.887,2.865
				l-19.357,19.505l0.087-1.862c0.014-0.307-0.096-0.598-0.304-0.805c-0.209-0.207-0.5-0.312-0.807-0.299l-1.861,0.104
				L160.172,107.802L160.172,107.802z"/>
			<path fill="#FFFFFF" d="M141.317,141.278l-2.67-2.65l0.412-8.899l2.342-0.124l-0.159,3.51c-0.002,0.017,0.003,0.025,0.005,0.04
				c-0.002,0.129,0.018,0.251,0.056,0.361c0.014,0.038,0.031,0.071,0.047,0.105c0.04,0.09,0.093,0.169,0.154,0.237
				c0.015,0.018,0.029,0.036,0.047,0.053c0.015,0.018,0.035,0.031,0.053,0.048c0.072,0.062,0.151,0.11,0.237,0.154
				c0.036,0.015,0.069,0.034,0.106,0.042c0.112,0.037,0.234,0.059,0.363,0.057c0.015,0,0.027,0.004,0.044,0.002l3.508-0.188
				l-0.163,3.513c0.002,0,0,0.001,0,0.001c0,0.018,0.006,0.037,0.004,0.054c0.001,0.059,0.009,0.114,0.018,0.167
				c0.008,0.058,0.018,0.113,0.034,0.168c0.015,0.054,0.041,0.098,0.063,0.145c0.024,0.052,0.05,0.101,0.082,0.143
				c0.034,0.047,0.073,0.087,0.114,0.125c0.036,0.037,0.068,0.072,0.111,0.102c0.049,0.033,0.104,0.064,0.16,0.091
				c0.044,0.019,0.085,0.041,0.13,0.056c0.06,0.018,0.119,0.027,0.18,0.034c0.053,0.007,0.105,0.017,0.159,0.017
				c0.018-0.002,0.036,0.004,0.058,0.004l3.507-0.189l-0.108,2.347L141.317,141.278z"/>
			<path fill="#FFFFFF" d="M160.172,107.802l2.887,2.865l-19.357,19.505l0.087-1.862c0.014-0.307-0.096-0.598-0.304-0.805
				c-0.209-0.207-0.5-0.312-0.807-0.299l-1.861,0.104L160.172,107.802L160.172,107.802z"/>
			<path fill="#FFFFFF" d="M145.276,131.733l19.357-19.507l2.886,2.868l-19.355,19.506l-0.001-0.003l0.086-1.86
				c0.007-0.158-0.018-0.309-0.072-0.443l-0.002-0.015c-0.054-0.13-0.129-0.249-0.229-0.349c-0.101-0.1-0.219-0.176-0.352-0.225
				c-0.004-0.002-0.007-0.003-0.011-0.004c-0.137-0.052-0.288-0.075-0.447-0.07L145.276,131.733z"/>
		</g>
		<path fill="#FFFFFF" d="M152.623,139.022l0.086-1.859c0.029-0.645-0.47-1.137-1.113-1.104l-1.859,0.101l19.3-19.45l0.056-0.058
			l2.886,2.862L152.623,139.022z"/>
	</g>
	<polygon fill="#CC3300" points="168.113,99.799 171,102.665 170.993,102.671 172.565,104.233 172.573,104.226 175.458,107.09 
		175.454,107.099 177.026,108.657 177.033,108.652 179.919,111.519 176.65,114.81 176.587,114.745 173.765,111.943 172.192,110.384 
		169.306,107.521 167.73,105.956 165.211,103.455 164.846,103.091 168.113,99.799 	"/>
	<polygon fill="#FFFFFF" points="163.121,104.831 163.337,105.046 166.006,107.696 167.581,109.256 170.466,112.124 
		172.039,113.684 174.709,116.334 174.926,116.547 173.705,117.78 173.488,117.565 170.817,114.914 169.244,113.354 
		166.358,110.487 164.785,108.927 162.115,106.276 161.898,106.063 	"/>
</g>
</svg>
