<?xml version="1.0" encoding="utf-8"?>
<!-- Generator: Adobe Illustrator 16.0.0, SVG Export Plug-In . SVG Version: 6.00 Build 0)  -->
<!DOCTYPE svg PUBLIC "-//W3C//DTD SVG 1.1//EN" "http://www.w3.org/Graphics/SVG/1.1/DTD/svg11.dtd">
<svg version="1.1" id="Layer_1" xmlns="http://www.w3.org/2000/svg" xmlns:xlink="http://www.w3.org/1999/xlink" x="0px" y="0px"
	 width="202.49px" height="176.178px" viewBox="0 0 202.49 176.178" enable-background="new 0 0 202.49 176.178"
	 xml:space="preserve">
<g id="Cute_Eyes_2">
</g>
<g id="Line_Teeth">
	<g id="Smile_Teeth">
	</g>
</g>
<g id="Arrow_24">
</g>
<g>
	<g>
		<g>
			<path fill="#56160B" d="M118.013,163.229c-0.263-0.004-0.54-0.045-0.819-0.124l-0.094-0.026l-0.04-0.004L54.76,144.037
				c-1.303-0.397-2.177-1.581-2.177-2.941V98.374l-17.619-4.55c-0.991-0.256-1.787-0.981-2.127-1.941
				c-0.343-0.963-0.189-2.03,0.413-2.854l19.633-26.857c0.161-0.206,0.333-0.379,0.538-0.545l0.174-0.136
				c0.165-0.115,0.356-0.223,0.553-0.309l0.142-0.068l46.518-17.055c0.345-0.126,0.703-0.19,1.062-0.19
				c0.146,0,0.293,0.011,0.44,0.032l58.053,8.521c0.024,0.012,0.077,0.026,0.133,0.037l0.128,0.025l0.13-0.02
				c0.16-0.024,0.32-0.036,0.479-0.036c1.018,0,1.925,0.464,2.489,1.271l18.926,27.003c0.521,0.736,0.687,1.664,0.457,2.542
				c-0.231,0.879-0.828,1.606-1.637,1.994l-15.587,7.479v42.603c0,1.115-0.606,2.145-1.583,2.687l-44.763,24.842
				c-0.048,0.025-0.117,0.048-0.183,0.069l-0.455,0.178c-0.282,0.082-0.542,0.127-0.78,0.136L118.013,163.229z M58.732,138.823
				l56.231,17.183V85.694l-15.161,22.74c-0.571,0.856-1.528,1.369-2.56,1.369c-0.25,0-0.509-0.035-0.772-0.102l-37.738-9.744
				V138.823z M121.113,154.936l38.614-21.429l-0.001-37.832l-26.254,12.602c-0.422,0.199-0.872,0.301-1.332,0.301
				c-0.355,0-0.7-0.06-1.026-0.177c-0.78-0.275-1.402-0.839-1.754-1.586l-8.247-17.524V154.936z M121.113,154.936l38.614-21.429
				l-0.001-37.832l-26.254,12.602c-0.422,0.199-0.872,0.301-1.332,0.301c-0.355,0-0.7-0.06-1.026-0.177
				c-0.78-0.275-1.402-0.839-1.754-1.586l-8.247-17.524V154.936z M40.888,89.001l55.011,14.202l16.992-25.489L56.708,67.359
				L40.888,89.001z M122.137,77.023l11.471,24.366l41.925-20.124l-15.371-21.924L122.137,77.023z M66.987,63.002l50.642,9.332
				l32.646-15.177l-48.085-7.056L66.987,63.002z"/>
		</g>
	</g>
	<path fill="#FFFFFF" d="M58.732,138.823l56.231,17.183V85.694l-15.161,22.74c-0.571,0.856-1.528,1.369-2.56,1.369
		c-0.25,0-0.509-0.035-0.772-0.102l-37.738-9.744V138.823z"/>
	<polygon fill="#FFFFFF" points="40.888,89.001 95.899,103.203 112.891,77.714 56.708,67.359 	"/>
	<polygon fill="#FFFFFF" points="122.137,77.023 133.608,101.39 175.533,81.266 160.163,59.342 	"/>
	<polygon fill="#FFFFFF" points="66.987,63.002 117.628,72.334 150.274,57.157 102.188,50.102 	"/>
	<path fill="#FFFFFF" d="M88.549,75.569c0,0-0.063,0.041-0.261,0.041c-0.208,0-0.597-0.047-1.258-0.268
		c-1.061-0.354-2.368-1.002-3.683-1.83c-0.026-0.017-0.051-0.033-0.077-0.05c0.611-0.444,1.213-0.862,1.795-1.242
		C87.707,74.005,88.623,75.403,88.549,75.569z"/>
	<g>
		<path fill="#56160B" d="M93.417,57.704c0,0.847-0.686,1.535-1.536,1.535c-3.901,0-11.02-6.955-13.994-15.582
			c-0.28-0.806,0.148-1.674,0.952-1.95c0.8-0.287,1.678,0.148,1.954,0.951c2.801,8.127,9.237,13.512,11.088,13.512
			C92.736,56.17,93.417,56.856,93.417,57.704z M154.96,55.085c-0.026,0.833-0.703,1.5-1.535,1.5c-0.011,0-0.032,0-0.042,0
			l-8.782-0.213l5.437,4.266c0.665,0.519,0.779,1.484,0.256,2.155c-0.304,0.384-0.754,0.585-1.209,0.585
			c-0.33,0-0.671-0.107-0.955-0.326l-7.223-5.666c-1.603,5.014-7.667,7.567-18.151,7.567c-0.545,0-1.101-0.005-1.685-0.018
			c-5.626-0.133-11.376-0.95-16.142-2.351c-2.314,1.552-4.556,2.363-6.615,2.363c-1.001,0-1.966-0.188-2.87-0.56
			c-0.282-0.115-0.562-0.253-0.841-0.432c-0.281,0.179-0.564,0.318-0.836,0.432c-2.085,0.856-4.536,0.717-7.088-0.434
			c-5.707-2.573-11.811-10.137-14.513-17.978c-3.322-9.601-0.427-17.096,7.944-20.557c4.967-2.057,9.444-1.65,12.96,1.086V12.716
			c0-0.852,0.689-1.536,1.533-1.536c0.845,0,1.537,0.685,1.537,1.536v4.21c0.856-1.429,2.039-2.876,3.649-3.866
			c1.541-0.941,3.383-1.416,5.462-1.416c2.351,0,4.202,0.623,4.287,0.648c0.738,0.25,1.174,1.025,0.995,1.794
			c-0.055,0.241-1.39,5.931-5.566,8.494c-1.547,0.94-3.39,1.415-5.476,1.415c-1.406,0-2.575-0.207-3.352-0.396v2.902
			c3.516-2.736,7.996-3.144,12.96-1.08c1.723,0.709,3.149,1.635,4.412,2.67l-1.8-8.831c-0.029-0.116-0.006-0.229,0-0.338
			c-0.127-0.297-0.209-0.605-0.209-0.941c0-4.777,13.584-5.024,16.308-5.024c2.722,0,16.304,0.247,16.304,5.024
			c0,0.341-0.086,0.655-0.21,0.952c0,0.12,0.018,0.242-0.012,0.367l-6.388,28.08c1.763,1.234,2.963,2.756,3.491,4.612l7.989-5.219
			c0.704-0.455,1.658-0.267,2.123,0.449c0.459,0.706,0.265,1.661-0.451,2.118l-6.055,3.961l8.863,0.208
			C154.308,53.532,154.979,54.237,154.96,55.085z M97.686,20.787c0.519,0.079,1.143,0.146,1.818,0.146
			c1.508,0,2.818-0.318,3.873-0.963c1.977-1.211,3.134-3.564,3.712-5.094c-0.521-0.084-1.146-0.157-1.823-0.157
			c-1.511,0-2.812,0.327-3.863,0.969C99.441,16.889,98.266,19.248,97.686,20.787z M134.701,45.874l5.551-24.391
			c-4.232,1.41-10.66,1.524-12.441,1.524c-1.793,0-8.282-0.114-12.513-1.55l2.752,13.499c0.041,0.206,0.035,0.419-0.006,0.619
			c0.498,2.419,0.376,5.135-0.347,8.081c0.696-0.021,1.385-0.037,2.083-0.037c0.583,0,1.187,0.004,1.786,0.022
			C127.14,43.775,131.469,44.542,134.701,45.874z M114.885,17.987c1.364,0.8,5.813,1.95,12.913,1.95
			c7.113,0,11.559-1.15,12.929-1.95c-1.37-0.802-5.815-1.95-12.929-1.95C120.695,16.037,116.262,17.186,114.885,17.987z
			 M101.125,61.229c-4.415-1.883-7.313-4.43-7.239-7.585c0.125-5.674,9.79-9.007,20.627-9.82c2.761-9.409-1.981-13.662-6.583-15.566
			c-3.496-1.447-8.426-2.112-12.069,2.974c-0.022,0.029-0.054,0.036-0.07,0.06c-0.284,0.35-0.696,0.582-1.179,0.582
			c-0.475,0-0.893-0.232-1.173-0.575c-0.022-0.03-0.061-0.033-0.068-0.066c-3.647-5.079-8.574-4.416-12.072-2.974
			c-4.797,1.985-9.762,6.492-6.212,16.727c2.401,7.006,7.941,13.959,12.862,16.176c1.781,0.812,3.343,0.946,4.655,0.398
			c0.318-0.132,0.665-0.34,1.068-0.658c0.558-0.438,1.338-0.438,1.895,0c0.399,0.318,0.747,0.526,1.063,0.658
			C98.079,62.157,99.675,61.859,101.125,61.229z M138.287,54.687c0.089-3.901-3.347-6.382-10.151-7.416l-0.098,4.156
			c-0.018,0.83-0.7,1.498-1.534,1.498c-0.011,0-0.023,0-0.037,0c-0.845-0.025-1.517-0.72-1.5-1.574l0.103-4.452
			c-1.132-0.089-2.314-0.161-3.59-0.188c-0.576-0.021-1.15-0.025-1.714-0.025c-0.637,0-1.253,0.016-1.872,0.028l-0.101,4.462
			c-0.018,0.836-0.7,1.504-1.537,1.504c-0.011,0-0.025,0-0.033,0c-0.847-0.021-1.519-0.728-1.5-1.572l0.093-4.247
			c-2.212,0.16-4.273,0.425-6.152,0.766l-0.097,4.381c-0.021,0.834-0.704,1.499-1.536,1.499c-0.012,0-0.026,0-0.037,0
			c-0.844-0.021-1.517-0.724-1.498-1.57l0.083-3.63c-5.346,1.387-8.593,3.451-8.632,5.394c-0.07,3.166,9.104,7.798,24.201,8.15
			C132.479,62.14,138.172,59.708,138.287,54.687z"/>
		<path fill="#CC3300" d="M101.194,61.229c-4.424-1.889-7.333-4.44-7.258-7.604c0.126-5.69,9.817-9.032,20.686-9.85
			c2.768-9.438-1.989-13.702-6.604-15.61c-3.502-1.451-8.448-2.119-12.102,2.98c-0.023,0.031-0.053,0.036-0.07,0.064
			c-0.285,0.346-0.699,0.58-1.182,0.58c-0.477,0-0.896-0.234-1.174-0.576c-0.025-0.032-0.062-0.037-0.069-0.068
			c-3.659-5.095-8.6-4.428-12.109-2.98c-4.81,1.994-9.79,6.51-6.23,16.773c2.411,7.027,7.964,14.001,12.901,16.222
			c1.785,0.813,3.353,0.95,4.667,0.398c0.32-0.132,0.667-0.34,1.069-0.658c0.562-0.438,1.342-0.438,1.899,0
			c0.402,0.318,0.752,0.526,1.069,0.658C98.144,62.161,99.742,61.862,101.194,61.229z"/>
		<path fill="#FFFFFF" d="M97.686,20.787c0.519,0.079,1.143,0.146,1.818,0.146c1.508,0,2.818-0.318,3.873-0.963
			c1.977-1.211,3.134-3.564,3.712-5.094c-0.521-0.084-1.146-0.157-1.823-0.157c-1.511,0-2.812,0.327-3.863,0.969
			C99.441,16.889,98.266,19.248,97.686,20.787z"/>
		<path fill="#FFFFFF" d="M134.701,45.874l5.551-24.391c-4.232,1.41-10.66,1.524-12.441,1.524c-1.793,0-8.282-0.114-12.513-1.55
			l2.752,13.499c0.041,0.206,0.035,0.419-0.006,0.619c0.498,2.419,0.376,5.135-0.347,8.081c0.696-0.021,1.385-0.037,2.083-0.037
			c0.583,0,1.187,0.004,1.786,0.022C127.14,43.775,131.469,44.542,134.701,45.874z"/>
		<path fill="#FFFFFF" d="M114.885,17.987c1.364,0.8,5.813,1.95,12.913,1.95c7.113,0,11.559-1.15,12.929-1.95
			c-1.37-0.802-5.815-1.95-12.929-1.95C120.695,16.037,116.262,17.186,114.885,17.987z"/>
		<path fill="#FFFFFF" d="M138.287,54.687c0.089-3.901-3.347-6.382-10.151-7.416l-0.098,4.156c-0.018,0.83-0.7,1.498-1.534,1.498
			c-0.011,0-0.023,0-0.037,0c-0.845-0.025-1.517-0.72-1.5-1.574l0.103-4.452c-1.132-0.089-2.314-0.161-3.59-0.188
			c-0.576-0.021-1.15-0.025-1.714-0.025c-0.637,0-1.253,0.016-1.872,0.028l-0.101,4.462c-0.018,0.836-0.7,1.504-1.537,1.504
			c-0.011,0-0.025,0-0.033,0c-0.847-0.021-1.519-0.728-1.5-1.572l0.093-4.247c-2.212,0.16-4.273,0.425-6.152,0.766l-0.097,4.381
			c-0.021,0.834-0.704,1.499-1.536,1.499c-0.012,0-0.026,0-0.037,0c-0.844-0.021-1.517-0.724-1.498-1.57l0.083-3.63
			c-5.346,1.387-8.593,3.451-8.632,5.394c-0.07,3.166,9.104,7.798,24.201,8.15C132.479,62.14,138.172,59.708,138.287,54.687z"/>
	</g>
</g>
</svg>
