<?xml version="1.0" standalone="no"?>
<!DOCTYPE svg PUBLIC "-//W3C//DTD SVG 20010904//EN"
 "http://www.w3.org/TR/2001/REC-SVG-20010904/DTD/svg10.dtd">
<svg version="1.0" xmlns="http://www.w3.org/2000/svg"
 width="700.000000pt" height="700.000000pt" viewBox="0 0 700.000000 700.000000"
 preserveAspectRatio="xMidYMid meet">
<metadata>
Created by potrace 1.11, written by Peter Selinger 2001-2013
</metadata>
<g transform="translate(0.000000,700.000000) scale(0.100000,-0.100000)"
fill="#000000" stroke="none">
<path d="M5124 5953 c-542 -366 -1077 -885 -1401 -1358 -12 -16 -67 -113 -123
-215 -196 -354 -289 -498 -368 -572 -84 -79 -218 -163 -552 -348 -204 -113
-199 -110 -355 -224 -404 -296 -901 -826 -1229 -1308 l-78 -116 43 -39 c24
-22 83 -75 132 -118 85 -75 88 -77 107 -60 15 14 32 17 84 13 85 -5 208 -66
369 -183 241 -174 400 -262 542 -300 348 -92 697 40 1061 403 148 148 243 289
308 459 58 153 71 228 71 413 -1 265 -39 410 -200 751 -52 110 -102 224 -111
254 l-17 54 29 57 c49 95 140 152 213 132 41 -11 204 -82 364 -157 130 -61
282 -113 403 -138 127 -25 389 -25 499 1 243 57 438 170 634 367 373 375 499
737 381 1091 -49 146 -120 268 -294 508 -108 149 -169 273 -174 356 -4 52 -1
69 13 84 17 19 15 22 -60 107 -105 119 -155 173 -158 173 -2 0 -61 -39 -133
-87z m79 -129 c11 -11 -5 -34 -24 -34 -12 0 -19 7 -19 20 0 19 28 28 43 14z
m67 -84 c0 -13 -7 -20 -20 -20 -13 0 -20 7 -20 20 0 13 7 20 20 20 13 0 20 -7
20 -20z m-75 -312 c327 -108 607 -544 606 -945 0 -236 -91 -429 -310 -656
-223 -231 -456 -337 -741 -337 -172 0 -335 40 -516 126 -266 127 -416 293
-444 491 -31 224 109 508 412 829 291 309 550 484 758 513 76 10 164 2 235
-21z m-2224 -2148 c187 -35 351 -189 473 -444 86 -181 126 -344 126 -516 0
-285 -106 -518 -337 -741 -228 -220 -420 -310 -658 -310 -261 0 -538 113 -738
300 -93 87 -183 220 -218 323 -53 158 11 413 154 607 169 231 443 491 669 637
200 129 367 174 529 144z m-1716 -1410 c0 -8 -10 -16 -22 -18 -18 -3 -23 2
-23 18 0 16 5 21 23 18 12 -2 22 -10 22 -18z m75 -70 c0 -13 -7 -20 -20 -20
-13 0 -20 7 -20 20 0 13 7 20 20 20 13 0 20 -7 20 -20z"/>
</g>
</svg>
