<?xml version="1.0" standalone="no"?>
<!DOCTYPE svg PUBLIC "-//W3C//DTD SVG 20010904//EN"
 "http://www.w3.org/TR/2001/REC-SVG-20010904/DTD/svg10.dtd">
<svg version="1.0" xmlns="http://www.w3.org/2000/svg"
 width="700.000000pt" height="700.000000pt" viewBox="0 0 700.000000 700.000000"
 preserveAspectRatio="xMidYMid meet">
<metadata>
Created by potrace 1.11, written by Peter Selinger 2001-2013
</metadata>
<g transform="translate(0.000000,700.000000) scale(0.100000,-0.100000)"
fill="#000000" stroke="none">
<path d="M200 3500 l0 -3240 3300 0 3300 0 0 3240 0 3240 -3300 0 -3300 0 0
-3240z m6400 0 l0 -3040 -3100 0 -3100 0 0 3040 0 3040 3100 0 3100 0 0 -3040z"/>
<path d="M5328 6316 c-9 -9 -19 -16 -22 -16 -5 0 -95 -61 -205 -139 -130 -93
-371 -285 -449 -358 -7 -7 -33 -29 -59 -50 -115 -94 -462 -439 -573 -569 -264
-309 -341 -416 -482 -671 -120 -219 -130 -236 -181 -323 -162 -274 -247 -374
-412 -482 -96 -63 -301 -184 -415 -246 -55 -29 -89 -48 -190 -105 -125 -70
-330 -216 -466 -332 -230 -197 -506 -468 -666 -654 -50 -58 -112 -131 -138
-161 -120 -139 -306 -390 -413 -558 l-47 -72 41 -38 c23 -20 50 -44 59 -52 9
-8 52 -46 95 -85 84 -76 105 -91 105 -76 0 18 70 31 119 21 110 -21 184 -60
421 -223 260 -178 279 -190 357 -230 165 -85 318 -126 477 -125 171 0 273 26
461 119 275 136 576 413 729 672 42 71 58 103 99 202 25 61 67 222 74 290 9
79 10 275 1 350 -18 174 -85 388 -184 592 -123 257 -172 378 -169 424 4 59 85
162 154 196 71 34 120 20 446 -132 55 -25 109 -50 120 -55 113 -52 322 -115
445 -134 460 -72 869 66 1209 405 67 68 156 169 241 276 38 47 125 193 155
259 184 401 119 737 -236 1219 -217 296 -294 480 -236 569 13 20 10 26 -62
105 -184 204 -185 205 -203 187z m-21 -211 c12 -9 20 -22 17 -29 -8 -20 -40
-26 -60 -12 -13 10 -14 17 -5 34 14 26 20 27 48 7z m103 -95 c0 -25 -22 -40
-48 -33 -23 6 -29 32 -11 50 16 16 59 4 59 -17z m-109 -343 c272 -103 517
-385 629 -726 16 -49 32 -101 34 -117 3 -16 8 -40 11 -54 14 -66 17 -102 17
-185 0 -89 -25 -241 -43 -259 -5 -6 -9 -17 -9 -26 0 -40 -144 -282 -210 -351
-8 -8 -31 -33 -50 -55 -145 -164 -393 -334 -545 -375 -113 -30 -155 -40 -195
-44 -55 -6 -246 -6 -280 0 -14 3 -43 7 -65 11 -148 22 -404 127 -552 225 -292
196 -387 444 -291 759 25 81 64 158 145 282 109 167 204 280 393 468 136 134
142 140 240 215 36 28 67 52 70 55 28 30 198 124 292 161 134 53 294 59 409
16z m-2488 -2441 c57 -9 148 -49 214 -94 180 -122 348 -408 423 -719 111 -456
-67 -896 -495 -1228 -259 -200 -495 -263 -785 -210 -74 14 -233 67 -316 105
-274 128 -493 357 -570 594 -30 93 -27 246 6 346 65 193 216 407 465 655 143
144 214 206 357 311 188 139 360 222 493 240 28 3 51 7 53 8 4 4 115 -2 155
-8z m-1923 -1577 c0 -25 -37 -44 -55 -29 -14 11 -15 27 -2 46 11 18 57 4 57
-17z m80 -84 c0 -21 -32 -35 -53 -24 -21 12 -22 23 -1 43 18 18 54 6 54 -19z"/>
</g>
</svg>
